<svg height="512" viewBox="0 0 512 512" width="512" xmlns="http://www.w3.org/2000/svg"><g id="flat"><path d="m352 416h-178a30 30 0 0 1 -30-30v-266a16 16 0 0 1 16-16h34a30 30 0 0 1 30 30v55a27 27 0 0 0 27 27h25a28 28 0 0 0 28-28v-68a16 16 0 0 1 16-16h32z" fill="#8ed2ff"/><path d="m248 215.83v.17h-28a28 28 0 0 1 -28-28v-84h2a30 30 0 0 1 30 30v55a27 27 0 0 0 24 26.83z" fill="#3775a4"/><path d="m352 104h2a30 30 0 0 1 30 30v252a30 30 0 0 1 -30 30h-2a0 0 0 0 1 0 0v-312a0 0 0 0 1 0 0z" fill="#3775a4"/><path d="m176 312a8 8 0 0 1 -8-8v-40a8 8 0 0 1 16 0v40a8 8 0 0 1 -8 8z" fill="#bce1ff"/><path d="m176 352a8 8 0 0 1 -8-8v-8a8 8 0 0 1 16 0v8a8 8 0 0 1 -8 8z" fill="#bce1ff"/><path d="m425.706 86.294a240 240 0 0 0 -339.412 339.412 240 240 0 0 0 339.412-339.412zm-11.314 11.314a223.977 223.977 0 0 1 5.547 311.017l-316.564-316.564a223.977 223.977 0 0 1 311.017 5.547zm-316.784 316.784a223.977 223.977 0 0 1 -5.547-311.017l316.564 316.564a223.977 223.977 0 0 1 -311.017-5.547z" fill="#e13029"/></g></svg>