<?xml version="1.0" encoding="iso-8859-1"?>
<!-- Generator: Adobe Illustrator 19.0.0, SVG Export Plug-In . SVG Version: 6.00 Build 0)  -->
<svg version="1.1" id="Capa_1" xmlns="http://www.w3.org/2000/svg" xmlns:xlink="http://www.w3.org/1999/xlink" x="0px" y="0px"
	 viewBox="0 0 512 512" style="enable-background:new 0 0 512 512;" xml:space="preserve">
<g>
	<path style="fill:#BDC3C7;" d="M409.259,158.72l-24.149-24.149c-1.594-1.598-3.759-2.496-6.016-2.496s-4.422,0.898-6.016,2.496
		l-72.448,72.448L143.787,363.861c-3.328,3.328,2.048,14.165,12.032,24.149c10.069,9.984,20.821,15.36,24.149,12.117
		l156.757-156.843c0.085,0,0.085,0,0.171-0.085l72.363-72.448c1.598-1.594,2.496-3.759,2.496-6.016
		C411.754,162.479,410.856,160.314,409.259,158.72z"/>
	<path style="fill:#804537;" d="M409.259,170.752L336.896,243.2c-0.085,0.085-0.085,0.085-0.171,0.085
		c-3.499,3.072-14.165-2.304-23.979-12.117c-10.069-10.069-15.36-20.821-12.117-24.149l72.448-72.448
		c1.594-1.598,3.759-2.496,6.016-2.496s4.422,0.898,6.016,2.496l24.149,24.149c1.598,1.594,2.496,3.759,2.496,6.016
		C411.754,166.993,410.856,169.158,409.259,170.752z"/>
	<g>
		<path style="fill:#CC4B4C;" d="M256,512C114.615,512,0,397.385,0,256S114.615,0,256,0s256,114.615,256,256
			C511.84,397.319,397.319,511.84,256,512z M256,17.067C124.041,17.067,17.067,124.041,17.067,256S124.041,494.933,256,494.933
			S494.933,387.959,494.933,256C494.785,124.102,387.898,17.215,256,17.067z"/>
		<path style="fill:#CC4B4C;" d="M431.021,439.55c-2.264,0.003-4.435-0.897-6.033-2.5L74.95,87.017
			c-3.322-3.334-3.318-8.728,0.01-12.056c3.328-3.328,8.722-3.333,12.056-0.01l350.037,350.033c2.44,2.44,3.169,6.11,1.849,9.298
			S434.472,439.549,431.021,439.55L431.021,439.55z"/>
	</g>
	<path style="fill:#95A5A5;" d="M164.605,296.09c-10.512,21.529-17.622,44.559-21.077,68.267c0,0-42.667-34.133-25.6-68.267
		s17.067-59.733,0-85.333C160.594,219.29,181.672,261.956,164.605,296.09z"/>
</g>
<g>
</g>
<g>
</g>
<g>
</g>
<g>
</g>
<g>
</g>
<g>
</g>
<g>
</g>
<g>
</g>
<g>
</g>
<g>
</g>
<g>
</g>
<g>
</g>
<g>
</g>
<g>
</g>
<g>
</g>
</svg>
