<?xml version="1.0" encoding="iso-8859-1"?>
<!-- Generator: Adobe Illustrator 19.0.0, SVG Export Plug-In . SVG Version: 6.00 Build 0)  -->
<svg version="1.1" id="Capa_1" xmlns="http://www.w3.org/2000/svg" xmlns:xlink="http://www.w3.org/1999/xlink" x="0px" y="0px"
	 viewBox="0 0 512 512" style="enable-background:new 0 0 512 512;" xml:space="preserve">
<g>
	<path style="fill:#4482C3;" d="M256,78.114c0,0-125.834,160.957-125.834,229.937c0,69.496,56.338,125.834,125.834,125.834
		s125.834-56.338,125.834-125.834C381.834,239.071,256,78.114,256,78.114z"/>
	<g>
		<path style="fill:#285680;" d="M256,408.288c-55.332-0.065-100.171-44.905-100.233-100.237l0.009-1.096
			c0.15-4.702,4.076-8.396,8.778-8.26c4.702,0.135,8.409,4.049,8.288,8.752c-0.105,22.144,8.603,43.42,24.203,59.136
			s36.811,24.581,58.955,24.639c4.713,0,8.533,3.82,8.533,8.533S260.713,408.288,256,408.288z"/>
		<g>
			<path style="fill:#CC4B4C;" d="M256,512C114.615,512,0,397.385,0,256S114.615,0,256,0s256,114.615,256,256
				C511.84,397.319,397.319,511.84,256,512z M256,17.067C124.041,17.067,17.067,124.041,17.067,256S124.041,494.933,256,494.933
				S494.933,387.959,494.933,256C494.785,124.102,387.898,17.215,256,17.067z"/>
			<path style="fill:#CC4B4C;" d="M431.021,439.55c-2.264,0.003-4.435-0.897-6.033-2.5L74.95,87.017
				c-3.322-3.334-3.318-8.728,0.01-12.056c3.328-3.328,8.722-3.333,12.056-0.01l350.037,350.033c2.44,2.44,3.169,6.11,1.849,9.298
				S434.472,439.549,431.021,439.55L431.021,439.55z"/>
		</g>
	</g>
</g>
<g>
</g>
<g>
</g>
<g>
</g>
<g>
</g>
<g>
</g>
<g>
</g>
<g>
</g>
<g>
</g>
<g>
</g>
<g>
</g>
<g>
</g>
<g>
</g>
<g>
</g>
<g>
</g>
<g>
</g>
</svg>
