<svg height="512" viewBox="0 0 512 512" width="512" xmlns="http://www.w3.org/2000/svg"><g id="flat"><g fill="#8ed2ff"><path d="m328 196a72.209 72.209 0 0 0 -10.29-37.15l-37.71-62.85h-48l-37.71 62.85a72.209 72.209 0 0 0 -10.29 37.15 12 12 0 0 0 12 12h12a24 24 0 0 0 -24 24 24 24 0 0 0 24 24 24 24 0 0 0 -24 24 24 24 0 0 0 24 24 24 24 0 0 0 -24 24 24 24 0 0 0 24 24 24 24 0 0 0 -24 24v34q0 .69.031 1.373c.876 19.44 21.018 32.037 39.2 25.11l22.8-8.686a28.009 28.009 0 0 1 19.936 0l22.8 8.686c18.184 6.927 38.326-5.67 39.2-25.11q.033-.682.033-1.373v-34a24 24 0 0 0 -24-24 24 24 0 0 0 24-24 24 24 0 0 0 -24-24 24 24 0 0 0 24-24 24 24 0 0 0 -24-24 24 24 0 0 0 24-24 24 24 0 0 0 -24-24h12a12 12 0 0 0 12-12z"/><path d="m185.38 336h141.24a24 24 0 0 1 -22.62 16h-96a23.979 23.979 0 0 1 -22.62-16z"/><path d="m185.38 288h141.24a24 24 0 0 1 -22.62 16h-96a23.979 23.979 0 0 1 -22.62-16z"/><path d="m185.38 240h141.24a24 24 0 0 1 -22.62 16h-96a23.979 23.979 0 0 1 -22.62-16z"/><path d="m328 196a12 12 0 0 1 -12 12h-120a11.984 11.984 0 0 1 -12-12c0-1.34.04-2.67.11-4h143.78c.07 1.33.11 2.66.11 4z"/></g><path d="m228 64h56a4 4 0 0 1 4 4v28a0 0 0 0 1 0 0h-64a0 0 0 0 1 0 0v-28a4 4 0 0 1 4-4z" fill="#76afd4"/><path d="m246.031 435.791a8 8 0 0 1 -2.973-15.43l32.315-12.926a33.857 33.857 0 0 1 25.254 0 8 8 0 0 1 -5.941 14.855 17.933 17.933 0 0 0 -13.372 0l-32.314 12.926a7.969 7.969 0 0 1 -2.969.575z" fill="#bce1ff"/><path d="m297.238 184a8 8 0 0 1 -6.821-3.808l-4.923-8a8 8 0 0 1 13.627-8.386l4.923 8a8 8 0 0 1 -6.806 12.194z" fill="#bce1ff"/><path d="m278.777 154a8 8 0 0 1 -6.821-3.808l-14.769-24a8 8 0 0 1 13.626-8.386l14.77 24a8 8 0 0 1 -6.806 12.194z" fill="#bce1ff"/><path d="m328 192v4a12 12 0 0 1 -12 12h-120a11.984 11.984 0 0 1 -12-12v-4z" fill="#76afd4"/><path d="m326.62 240a24 24 0 0 1 -22.62 16h-96a23.979 23.979 0 0 1 -22.62-16z" fill="#76afd4"/><path d="m326.62 288a24 24 0 0 1 -22.62 16h-96a23.979 23.979 0 0 1 -22.62-16z" fill="#76afd4"/><path d="m326.62 336a24 24 0 0 1 -22.62 16h-96a23.979 23.979 0 0 1 -22.62-16z" fill="#76afd4"/><path d="m425.705 86.294a240 240 0 1 0 -339.405 339.412 240 240 0 1 0 339.405-339.412zm-11.313 11.314a223.976 223.976 0 0 1 5.546 311.017l-316.563-316.564a223.977 223.977 0 0 1 311.017 5.547zm-316.784 316.784a223.976 223.976 0 0 1 -5.546-311.017l316.563 316.563a223.976 223.976 0 0 1 -311.017-5.546z" fill="#e13029"/></g></svg>