<svg height="495pt" viewBox="-8 0 495 495.95055" width="495pt" xmlns="http://www.w3.org/2000/svg"><path d="m200.148438 104.289062h80v32h-80zm0 0" fill="#91cc04"/><path d="m152.148438 136.289062h176v256h-176zm0 0" fill="#ffda44"/><g fill="#231f20"><path d="m280.148438 96.289062h-80c-4.417969 0-8 3.578126-8 8v24h-40c-4.417969 0-8 3.578126-8 8v256c0 4.417969 3.582031 8 8 8h176c4.417968 0 8-3.582031 8-8v-256c0-4.421874-3.582032-8-8-8h-40v-24c0-4.421874-3.582032-8-8-8zm-72 16h64v16h-64zm112 272h-160v-240h160zm0 0"/><path d="m5.53125 167.414062c1.980469.785157 4.1875.753907 6.136719-.09375 1.953125-.847656 3.488281-2.4375 4.265625-4.417968 34.179687-86.652344 116.855468-144.476563 209.980468-146.863282 93.121094-2.382812 178.648438 51.136719 217.21875 135.929688h-35.304687c-4.417969 0-8 3.582031-8 8s3.582031 8 8 8h47.351563c.128906 0 .242187-.042969.367187-.050781.128906-.007813.1875.050781.28125.050781 3.441406-.003906 6.496094-2.207031 7.585937-5.472656l16-48c1.394532-4.199219-.875-8.734375-5.074218-10.128906-4.195313-1.394532-8.730469.875-10.128906 5.070312l-9.710938 29.25c-43.320312-88.164062-134.578125-142.464844-232.730469-138.484375-98.152343 3.984375-184.710937 65.5-220.75 156.882813-1.585937 4.097656.429688 8.710937 4.511719 10.328124zm0 0"/><path d="m474.765625 328.519531c-1.976563-.785156-4.1875-.75-6.136719.09375-1.953125.847657-3.488281 2.4375-4.265625 4.417969-34.1875 86.640625-116.855469 144.453125-209.96875 146.835938-93.109375 2.382812-178.628906-51.121094-217.207031-135.898438h35.28125c4.417969 0 8-3.582031 8-8s-3.582031-8-8-8h-47.351562c-.25 0-.480469.0625-.726563.085938-3.402344-.003907-6.421875 2.164062-7.507813 5.382812l-16 48c-1.394531 4.199219.875 8.734375 5.074219 10.128906 4.195313 1.398438 8.730469-.875 10.128907-5.070312l9.742187-29.234375c43.320313 88.164062 134.582031 142.46875 232.734375 138.484375 98.148438-3.980469 184.710938-65.5 220.746094-156.882813 1.59375-4.109375-.4375-8.738281-4.542969-10.34375zm0 0"/><path d="m224.148438 344.289062h-40c-4.417969 0-8 3.578126-8 8 0 4.417969 3.582031 8 8 8h40c4.417968 0 8-3.582031 8-8 0-4.421874-3.582032-8-8-8zm0 0"/><path d="m252.628906 345.648438c-.445312-.300782-.929687-.542969-1.441406-.722657-.476562-.242187-.996094-.402343-1.527344-.476562-2.34375-.484375-4.78125.121093-6.628906 1.644531s-2.90625 3.800781-2.882812 6.195312c0 4.417969 3.582031 8 8 8 4.417968 0 8-3.582031 8-8-.027344-2.121093-.859376-4.148437-2.320313-5.683593-.382813-.339844-.78125-.660157-1.199219-.957031zm0 0"/></g></svg>